<svg width="23" height="28" viewBox="0 0 23 28" fill="none" xmlns="http://www.w3.org/2000/svg">
<g clip-path="url(#clip0_278_1501)">
<path d="M2.89196 24.0589C3.90895 25.5229 5.29949 27.5247 7.09357 27.5247V27.5212H7.18498C7.86984 27.4777 8.53946 27.2985 9.15543 26.9938H9.17267C9.95229 26.6126 10.8069 26.4128 11.6735 26.4091C12.5034 26.4182 13.3208 26.6135 14.0664 26.9808H14.0716C14.6946 27.297 15.38 27.4686 16.0774 27.483H16.1792C17.9841 27.456 19.1378 25.9391 20.3451 24.1093C21.1739 22.9142 21.8163 21.5984 22.25 20.2076V20.2006C21.5704 19.9123 20.9494 19.5 20.4184 18.9843C19.832 18.4268 19.3666 17.7531 19.0513 17.0055C18.7361 16.2579 18.578 15.4525 18.5868 14.6403C18.6038 13.5861 18.8836 12.5531 19.4003 11.6361C19.9169 10.7192 20.654 9.94782 21.5438 9.39272C20.9766 8.57776 20.2289 7.90699 19.3599 7.43351C18.4909 6.96002 17.5245 6.6968 16.537 6.66468C16.3724 6.64991 16.2249 6.64209 16.0989 6.64209C15.0096 6.71105 13.9425 6.98387 12.9523 7.4466H12.9316C12.4223 7.69534 11.8757 7.8574 11.3139 7.92618C10.7214 7.86295 10.1448 7.6944 9.61074 7.42836H9.59177C8.73578 7.01905 7.80992 6.7787 6.86419 6.72029H6.78658C5.63538 6.75676 4.51323 7.0933 3.52964 7.69705C2.54603 8.3008 1.73459 9.15114 1.17449 10.1651C0.0454163 12.4 -0.282374 14.9595 0.246607 17.41C0.663483 19.7825 1.5618 22.0428 2.88536 24.0494L2.89196 24.0589Z" fill="white"/>
<path d="M11.1 6.344C11.1889 6.35197 11.2781 6.35546 11.3674 6.35443C12.0995 6.31719 12.8157 6.12494 13.4691 5.79023C14.1225 5.4555 14.6987 4.98583 15.1599 4.41178C16.1822 3.18276 16.6844 1.59846 16.5586 0C15.0035 0.163702 13.5668 0.911959 12.535 2.09555C11.5165 3.26402 11.0004 4.79218 11.1 6.344Z" fill="white"/>
</g>
<defs>
<clipPath id="clip0_278_1501">
<rect width="23" height="28" fill="white"/>
</clipPath>
</defs>
</svg>
