<svg width="36" height="36" viewBox="0 0 36 36" fill="none" xmlns="http://www.w3.org/2000/svg">
<rect width="36" height="36" rx="18" fill="white" fill-opacity="0.5"/>
<path d="M25.8571 8H10.1429C8.9375 8 8 8.98214 8 10.1429V25.8571C8 27.0625 8.9375 28 10.1429 28H16.2589V21.2143H13.4464V18H16.2589V15.5893C16.2589 12.8214 17.9107 11.2589 20.4107 11.2589C21.6607 11.2589 22.9107 11.4821 22.9107 11.4821V14.2054H21.5268C20.1429 14.2054 19.6964 15.0536 19.6964 15.9464V18H22.7768L22.2857 21.2143H19.6964V28H25.8571C27.0179 28 28 27.0625 28 25.8571V10.1429C28 8.98214 27.0179 8 25.8571 8Z" fill="white"/>
</svg>
