<svg width="91" height="12" viewBox="0 0 91 12" fill="none" xmlns="http://www.w3.org/2000/svg">
<path d="M0 11.5763V0.23625H6.71737V1.88212H1.64587V5.07937H5.77238V6.73313H1.64587V11.5763H0Z" fill="white"/>
<path d="M8.29397 1.67737V0.0787499H9.93985V1.67737H8.29397ZM8.29397 11.5763V3.07125H9.93985V11.5763H8.29397Z" fill="white"/>
<path d="M18.2739 11.5763V7.39463C18.2739 7.06388 18.2451 6.72525 18.1873 6.37875C18.1348 6.027 18.0298 5.7015 17.8723 5.40225C17.7201 5.103 17.5022 4.8615 17.2187 4.67775C16.9404 4.494 16.5756 4.40212 16.1241 4.40212C15.8301 4.40212 15.5518 4.452 15.2893 4.55175C15.0268 4.64625 14.7958 4.80113 14.5963 5.01637C14.4021 5.23163 14.2472 5.51512 14.1317 5.86687C14.0214 6.21862 13.9663 6.6465 13.9663 7.1505L12.9426 6.76463C12.9426 5.99288 13.0869 5.313 13.3757 4.725C13.6644 4.13175 14.0792 3.66975 14.6199 3.339C15.1607 3.00825 15.8143 2.84287 16.5808 2.84287C17.1688 2.84287 17.6623 2.93737 18.0613 3.12637C18.4603 3.31537 18.7832 3.56475 19.0299 3.8745C19.2819 4.179 19.4736 4.51237 19.6048 4.87463C19.7361 5.23687 19.8253 5.59125 19.8726 5.93775C19.9198 6.28425 19.9434 6.58875 19.9434 6.85125V11.5763H18.2739ZM12.2968 11.5763V3.07125H13.7694V5.52825H13.9663V11.5763H12.2968Z" fill="white"/>
<path d="M24.3965 11.8125C23.7665 11.8125 23.2389 11.697 22.8136 11.466C22.3884 11.2297 22.0655 10.92 21.845 10.5367C21.6298 10.1482 21.5221 9.723 21.5221 9.261C21.5221 8.8305 21.5983 8.4525 21.7505 8.127C21.9028 7.8015 22.1285 7.52587 22.4278 7.30012C22.727 7.06912 23.0945 6.88275 23.5303 6.741C23.9083 6.63075 24.3361 6.53363 24.8139 6.44963C25.2916 6.36562 25.793 6.28687 26.318 6.21338C26.8483 6.13987 27.3733 6.06637 27.893 5.99288L27.2945 6.32362C27.305 5.65688 27.1633 5.16337 26.8693 4.84312C26.5805 4.51762 26.0818 4.35487 25.373 4.35487C24.9268 4.35487 24.5173 4.45987 24.1445 4.66988C23.7718 4.87462 23.5119 5.21587 23.3649 5.69362L21.8293 5.22113C22.0393 4.49137 22.4383 3.91125 23.0263 3.48075C23.6195 3.05025 24.407 2.835 25.3888 2.835C26.15 2.835 26.8115 2.96625 27.3733 3.22875C27.9403 3.486 28.355 3.8955 28.6175 4.45725C28.754 4.7355 28.838 5.0295 28.8695 5.33925C28.901 5.649 28.9168 5.98237 28.9168 6.33938V11.5763H27.4599V9.63112L27.7434 9.88313C27.3916 10.5341 26.9428 11.0197 26.3968 11.34C25.856 11.655 25.1893 11.8125 24.3965 11.8125ZM24.6879 10.4659C25.1551 10.4659 25.5568 10.3845 25.8928 10.2218C26.2288 10.0538 26.4991 9.84113 26.7039 9.58387C26.9086 9.32662 27.0425 9.05888 27.1055 8.78062C27.1948 8.52862 27.2446 8.24512 27.2551 7.93012C27.2709 7.61512 27.2788 7.36313 27.2788 7.17413L27.8143 7.371C27.2945 7.44975 26.822 7.52062 26.3968 7.58362C25.9715 7.64663 25.5856 7.70963 25.2391 7.77263C24.8979 7.83038 24.5934 7.90125 24.3256 7.98525C24.0999 8.064 23.8978 8.1585 23.7193 8.26875C23.546 8.379 23.4069 8.51288 23.3019 8.67038C23.2021 8.82788 23.1523 9.0195 23.1523 9.24525C23.1523 9.46575 23.2074 9.6705 23.3176 9.8595C23.4279 10.0433 23.5959 10.1903 23.8216 10.3005C24.0474 10.4108 24.3361 10.4659 24.6879 10.4659Z" fill="white"/>
<path d="M36.9309 11.5763V7.39463C36.9309 7.06388 36.902 6.72525 36.8443 6.37875C36.7918 6.027 36.6868 5.7015 36.5293 5.40225C36.377 5.103 36.1592 4.8615 35.8757 4.67775C35.5974 4.494 35.2325 4.40212 34.781 4.40212C34.487 4.40212 34.2088 4.452 33.9463 4.55175C33.6838 4.64625 33.4528 4.80113 33.2533 5.01637C33.059 5.23163 32.9042 5.51512 32.7887 5.86687C32.6784 6.21862 32.6233 6.6465 32.6233 7.1505L31.5995 6.76463C31.5995 5.99288 31.7439 5.313 32.0327 4.725C32.3214 4.13175 32.7362 3.66975 33.2769 3.339C33.8177 3.00825 34.4713 2.84287 35.2378 2.84287C35.8258 2.84287 36.3193 2.93737 36.7183 3.12637C37.1173 3.31537 37.4402 3.56475 37.6869 3.8745C37.9389 4.179 38.1305 4.51237 38.2618 4.87463C38.393 5.23687 38.4823 5.59125 38.5295 5.93775C38.5768 6.28425 38.6004 6.58875 38.6004 6.85125V11.5763H36.9309ZM30.9538 11.5763V3.07125H32.4264V5.52825H32.6233V11.5763H30.9538Z" fill="white"/>
<path d="M44.1822 11.8125C43.3107 11.8125 42.5704 11.6183 41.9614 11.2298C41.3524 10.8413 40.8852 10.3084 40.5597 9.63112C40.2394 8.95387 40.0767 8.18475 40.0714 7.32375C40.0767 6.447 40.2447 5.67263 40.5754 5.00063C40.9062 4.32338 41.3787 3.79312 41.9929 3.40987C42.6072 3.02663 43.3448 2.835 44.2058 2.835C45.1351 2.835 45.9278 3.066 46.5841 3.528C47.2456 3.99 47.6813 4.62263 47.8913 5.42588L46.2533 5.89838C46.0906 5.42063 45.8228 5.0505 45.4501 4.788C45.0826 4.52025 44.6599 4.38637 44.1822 4.38637C43.6414 4.38637 43.1978 4.515 42.8513 4.77225C42.5048 5.02425 42.2476 5.37075 42.0796 5.81175C41.9116 6.25275 41.8249 6.75675 41.8197 7.32375C41.8249 8.2005 42.0244 8.90925 42.4182 9.45C42.8172 9.99075 43.4052 10.2611 44.1822 10.2611C44.7124 10.2611 45.1403 10.1404 45.4658 9.89887C45.7966 9.65212 46.0486 9.30037 46.2218 8.84363L47.8913 9.23738C47.6131 10.0669 47.1537 10.7048 46.5132 11.151C45.8727 11.592 45.0957 11.8125 44.1822 11.8125Z" fill="white"/>
<path d="M53.037 11.8125C52.1918 11.8125 51.4489 11.6287 50.8084 11.2612C50.1731 10.8885 49.677 10.3714 49.32 9.70988C48.9683 9.04313 48.7924 8.27137 48.7924 7.39463C48.7924 6.46538 48.9656 5.6595 49.3121 4.977C49.6639 4.2945 50.1521 3.76687 50.7769 3.39412C51.4016 3.02138 52.1288 2.835 52.9583 2.835C53.8245 2.835 54.5621 3.03713 55.1711 3.44138C55.7801 3.84038 56.2343 4.41 56.5335 5.15025C56.838 5.8905 56.9588 6.76988 56.8958 7.78837H55.2499V7.18988C55.2394 6.20287 55.0504 5.47312 54.6829 5.00063C54.3206 4.52812 53.7668 4.29187 53.0213 4.29187C52.197 4.29187 51.5775 4.55175 51.1628 5.0715C50.748 5.59125 50.5406 6.342 50.5406 7.32375C50.5406 8.25825 50.748 8.98275 51.1628 9.49725C51.5775 10.0065 52.176 10.2611 52.9583 10.2611C53.4728 10.2611 53.9164 10.1456 54.2891 9.91463C54.6671 9.67838 54.9611 9.34237 55.1711 8.90662L56.7855 9.4185C56.4548 10.1798 55.9534 10.7704 55.2814 11.1904C54.6094 11.6051 53.8613 11.8125 53.037 11.8125ZM50.0051 7.78837V6.50475H56.0768V7.78837H50.0051Z" fill="white"/>
<path d="M58.6626 11.5763V0.23625H65.38V1.88212H60.3085V5.07937H64.435V6.73313H60.3085V11.5763H58.6626Z" fill="white"/>
<path d="M66.9566 11.5763V0H68.6024V11.5763H66.9566Z" fill="white"/>
<path d="M74.6607 11.8125C73.8102 11.8125 73.0725 11.6209 72.4478 11.2376C71.823 10.8544 71.34 10.3268 70.9988 9.65475C70.6628 8.9775 70.4948 8.19788 70.4948 7.31588C70.4948 6.42863 70.668 5.649 71.0145 4.977C71.361 4.29975 71.8467 3.77475 72.4714 3.402C73.0962 3.024 73.8259 2.835 74.6607 2.835C75.5112 2.835 76.2488 3.02663 76.8735 3.40987C77.4983 3.79312 77.9813 4.32075 78.3225 4.99275C78.6638 5.66475 78.8344 6.43913 78.8344 7.31588C78.8344 8.20312 78.6612 8.98538 78.3147 9.66263C77.9734 10.3346 77.4904 10.8623 76.8657 11.2455C76.2409 11.6235 75.5059 11.8125 74.6607 11.8125ZM74.6607 10.2611C75.4744 10.2611 76.0808 9.98813 76.4798 9.44213C76.884 8.89088 77.0862 8.18213 77.0862 7.31588C77.0862 6.42863 76.8814 5.71987 76.4719 5.18962C76.0677 4.65412 75.4639 4.38637 74.6607 4.38637C74.1094 4.38637 73.6553 4.51237 73.2983 4.76437C72.9413 5.01113 72.6762 5.355 72.5029 5.796C72.3297 6.23175 72.243 6.73838 72.243 7.31588C72.243 8.20837 72.4478 8.92237 72.8573 9.45788C73.2668 9.99337 73.8679 10.2611 74.6607 10.2611Z" fill="white"/>
<path d="M82.0686 11.5763L79.4698 3.06337L81.0999 3.07125L82.8797 8.90662L84.6752 3.07125H86.0927L87.8882 8.90662L89.6679 3.07125H91.2902L88.6915 11.5763H87.3684L85.3839 5.418L83.3916 11.5763H82.0686Z" fill="white"/>
</svg>
