<svg width="36" height="36" viewBox="0 0 36 36" fill="none" xmlns="http://www.w3.org/2000/svg">
<rect width="36" height="36" rx="18" fill="white" fill-opacity="0.5"/>
<path d="M18.0223 12.8438C15.1652 12.8438 12.8884 15.1652 12.8884 17.9777C12.8884 20.8348 15.1652 23.1116 18.0223 23.1116C20.8348 23.1116 23.1562 20.8348 23.1562 17.9777C23.1562 15.1652 20.8348 12.8438 18.0223 12.8438ZM18.0223 21.3259C16.192 21.3259 14.6741 19.8527 14.6741 17.9777C14.6741 16.1473 16.1473 14.6741 18.0223 14.6741C19.8527 14.6741 21.3259 16.1473 21.3259 17.9777C21.3259 19.8527 19.8527 21.3259 18.0223 21.3259ZM24.5402 12.6652C24.5402 11.9955 24.0045 11.4598 23.3348 11.4598C22.6652 11.4598 22.1295 11.9955 22.1295 12.6652C22.1295 13.3348 22.6652 13.8705 23.3348 13.8705C24.0045 13.8705 24.5402 13.3348 24.5402 12.6652ZM27.933 13.8705C27.8438 12.2634 27.4866 10.8348 26.3259 9.67411C25.1652 8.51339 23.7366 8.15625 22.1295 8.06696C20.4777 7.97768 15.5223 7.97768 13.8705 8.06696C12.2634 8.15625 10.8795 8.51339 9.67411 9.67411C8.51339 10.8348 8.15625 12.2634 8.06696 13.8705C7.97768 15.5223 7.97768 20.4777 8.06696 22.1295C8.15625 23.7366 8.51339 25.1205 9.67411 26.3259C10.8795 27.4866 12.2634 27.8438 13.8705 27.933C15.5223 28.0223 20.4777 28.0223 22.1295 27.933C23.7366 27.8438 25.1652 27.4866 26.3259 26.3259C27.4866 25.1205 27.8438 23.7366 27.933 22.1295C28.0223 20.4777 28.0223 15.5223 27.933 13.8705ZM25.7902 23.8705C25.4777 24.7634 24.7634 25.433 23.9152 25.7902C22.5759 26.3259 19.4509 26.192 18.0223 26.192C16.5491 26.192 13.4241 26.3259 12.1295 25.7902C11.2366 25.433 10.567 24.7634 10.2098 23.8705C9.67411 22.5759 9.80804 19.4509 9.80804 17.9777C9.80804 16.5491 9.67411 13.4241 10.2098 12.0848C10.567 11.2366 11.2366 10.567 12.1295 10.2098C13.4241 9.67411 16.5491 9.80804 18.0223 9.80804C19.4509 9.80804 22.5759 9.67411 23.9152 10.2098C24.7634 10.5223 25.433 11.2366 25.7902 12.0848C26.3259 13.4241 26.192 16.5491 26.192 17.9777C26.192 19.4509 26.3259 22.5759 25.7902 23.8705Z" fill="white"/>
</svg>
