<svg width="36" height="36" viewBox="0 0 36 36" fill="none" xmlns="http://www.w3.org/2000/svg">
<rect width="36" height="36" rx="18" fill="white" fill-opacity="0.5"/>
<path d="M12.4743 28V14.6219H8.3132V28H12.4743ZM10.3714 12.8322C11.7136 12.8322 12.7875 11.7136 12.7875 10.3714C12.7875 9.07383 11.7136 8 10.3714 8C9.07383 8 8 9.07383 8 10.3714C8 11.7136 9.07383 12.8322 10.3714 12.8322ZM28.0447 28V20.6622C28.0447 17.0828 27.2394 14.3087 23.0336 14.3087C21.0201 14.3087 19.6779 15.4273 19.0962 16.4564H19.0515V14.6219H15.0694V28H19.2304V21.3781C19.2304 19.6331 19.5436 17.9776 21.6913 17.9776C23.8389 17.9776 23.8837 19.9463 23.8837 21.5123V28H28.0447Z" fill="white"/>
</svg>
